# xmcd
#
# Track frame offsets:
#	150
#	15017
#	30263
#	46683
#	63507
#	80933
#	97322
#	110304
#	123729
#	141386
#	155427
#	173402
#	189634
#	207876
#
# Disc length: 2976
#
# Revision: 1
# Processed by: cddbd v1.5.1PL0 Copyright (c) Steve Scherf et al.
# Submitted via: CDex 1.50beta9
# Normalized: r0:TDELIM( - )
#
DISCID=b60b9e0e
DTITLE=Various Artist - Hitz - Country - Vol 4
DYEAR=2002
DGENRE=Country
TTITLE0=Toby Keith - Courtesy of the Red, White and Blue (The Angry American)
TTITLE1=Mark Chesnutt - She Was
TTITLE2=Brad Martin - Before I Knew Better
TTITLE3=Blake Shelton - Ol' Red
TTITLE4=LeeAnn Womack - Something Worth Leaving Behind
TTITLE5=Cyndi Thompson - I'm Gone
TTITLE6=Little Big Town - Don't Waste My Time
TTITLE7=Hometown News - Minivan
TTITLE8=Anthony Smith - If That Ain't Country
TTITLE9=Marie Sisters - Real Bad Mood
TTITLE10=Kenny Rogers - Harder Cards
TTITLE11=Aaron Tippin - I'll Take The Money
TTITLE12=Rebecca Lynn Howard - Forgive
TTITLE13=Sixwire - Look At Me Now
EXTD=YEAR: 2002
EXTT0=
EXTT1=
EXTT2=
EXTT3=
EXTT4=
EXTT5=
EXTT6=
EXTT7=
EXTT8=
EXTT9=
EXTT10=
EXTT11=
EXTT12=
EXTT13=
PLAYORDER=
